# xmcd
#
# Track frame offsets: 
#        150
#        7995
#        23591
#        36752
#        48042
#        52710
#        61557
#        74581
#        95062
#        114051
#        136950
#
# Disc length: 1936 seconds
#
# Revision: 0
# Processed by: cddbd v1.5.2PL0 Copyright (c) Steve Scherf et al.
# Submitted via: ExactAudioCopy v0.99pb4
#
DISCID=7a078e0b
DTITLE=Black Twig Pickers - Big Banjo Blues
DYEAR=2002
DGENRE=Bluegrass
TTITLE0=ironto special
TTITLE1=john henry
TTITLE2=31 week blues
TTITLE3=john brown's dream
TTITLE4=cindy
TTITLE5=have you been to alabama ?
TTITLE6=lost indian
TTITLE7=white house blues
TTITLE8=trouble in mind
TTITLE9=this war is killing me
TTITLE10=ducks on the pond
EXTD=
EXTT0=
EXTT1=
EXTT2=
EXTT3=
EXTT4=
EXTT5=
EXTT6=
EXTT7=
EXTT8=
EXTT9=
EXTT10=
PLAYORDER=
